# Alias OBJ Model File
# Exported from SketchUp, (c) 2000-2012 Trimble Navigation Limited
# File units = inches

mtllib Ramp.mtl

g Mesh1 Model

usemtl FrontColor
v -6.2955 244.254 5.25
vt -6.2955 244.254
vn 0 0 1
v -4.09193 211.062 5.25
vt -4.09193 211.062
v 2.20912 179.797 5.25
vt 2.20912 179.797
v 2.46531 178.526 5.25
vt 2.46531 178.526
v 13.2661 147.142 5.25
vt 13.2661 147.142
v 28.1208 117.462 5.25
vt 28.1208 117.462
v 46.7688 90.0058 5.25
vt 46.7688 90.0058
v 68.8827 65.2557 5.25
vt 68.8827 65.2557
v 94.0743 43.6461 5.25
vt 94.0743 43.6461
v 121.901 25.5563 5.25
vt 121.901 25.5563
v 151.876 11.3039 5.25
vt 151.876 11.3039
v 183.471 1.13909 5.25
vt 183.471 1.13909
v 216.133 -4.75982 5.25
vt 216.133 -4.75982
v 247.032 -6.18519 5.25
vt 247.032 -6.18519
v 246.95 -2.15396 5.25
vt 246.95 -2.15396
v 216.585 -0.753217 5.25
vt 216.585 -0.753217
v 184.449 5.05076 5.25
vt 184.449 5.05076
v 153.362 15.052 5.25
vt 153.362 15.052
v 123.87 29.075 5.25
vt 123.87 29.075
v 96.491 46.8736 5.25
vt 96.491 46.8736
v 71.7048 68.1354 5.25
vt 71.7048 68.1354
v 49.9469 92.4872 5.25
vt 49.9469 92.4872
v 31.599 119.502 5.25
vt 31.599 119.502
v 16.9834 148.704 5.25
vt 16.9834 148.704
v 6.35644 179.583 5.25
vt 6.35644 179.583
v -0.0952695 211.595 5.25
vt -0.0952695 211.595
v -2.25353 244.105 5.25
vt -2.25353 244.105
v -2.25353 339.363 5.25
vt -2.25353 339.363
v -6.2955 339.363 5.25
vt -6.2955 339.363
f 1/1/1 2/2/1 3/3/1 4/4/1 5/5/1 6/6/1 7/7/1 8/8/1 9/9/1 10/10/1 11/11/1 12/12/1 13/13/1 14/14/1 15/15/1 16/16/1 17/17/1 18/18/1 19/19/1 20/20/1 21/21/1 22/22/1 23/23/1 24/24/1 25/25/1 26/26/1 27/27/1 28/28/1 29/29/1 

v -6.2955 244.254 -0
vt 0 244.135
vn -0.997804 -0.0662427 -0
v -4.09193 211.062 -0
vt 0 210.87
vn -0.991224 -0.132194 -0
vt 5.25 210.87
vt 5.25 244.135
f 30/30/2 31/31/3 2/32/3 1/33/2 

vt 4.09193 211.062
vn 0 0 -1
vt 6.2955 244.254
v -6.2955 339.363 -0
vt 6.2955 339.363
v -2.25353 339.363 -0
vt 2.25353 339.363
v -2.25353 244.105 -0
vt 2.25353 244.105
v -0.0952695 211.595 -0
vt 0.0952695 211.595
v 6.35644 179.583 -0
vt -6.35644 179.583
v 16.9834 148.704 -0
vt -16.9834 148.704
v 31.599 119.502 -0
vt -31.599 119.502
v 49.9469 92.4872 -0
vt -49.9469 92.4872
v 71.7048 68.1354 -0
vt -71.7048 68.1354
v 96.491 46.8736 -0
vt -96.491 46.8736
v 123.87 29.075 -0
vt -123.87 29.075
v 153.362 15.052 -0
vt -153.362 15.052
v 184.449 5.05076 -0
vt -184.449 5.05076
v 216.585 -0.753217 -0
vt -216.585 -0.753217
v 246.95 -2.15396 -0
vt -246.95 -2.15396
v 247.032 -6.18519 -0
vt -247.032 -6.18519
v 216.133 -4.75982 -0
vt -216.133 -4.75982
v 183.471 1.13909 -0
vt -183.471 1.13909
v 151.876 11.3039 -0
vt -151.876 11.3039
v 121.901 25.5563 -0
vt -121.901 25.5563
v 94.0743 43.6461 -0
vt -94.0743 43.6461
v 68.8827 65.2557 -0
vt -68.8827 65.2557
v 46.7688 90.0058 -0
vt -46.7688 90.0058
v 28.1208 117.462 -0
vt -28.1208 117.462
v 13.2661 147.142 -0
vt -13.2661 147.142
v 2.46531 178.526 -0
vt -2.46531 178.526
v 2.20912 179.797 -0
vt -2.20912 179.797
f 31/34/4 30/35/4 32/36/4 33/37/4 34/38/4 35/39/4 36/40/4 37/41/4 38/42/4 39/43/4 40/44/4 41/45/4 42/46/4 43/47/4 44/48/4 45/49/4 46/50/4 47/51/4 48/52/4 49/53/4 50/54/4 51/55/4 52/56/4 53/57/4 54/58/4 55/59/4 56/60/4 57/61/4 58/62/4 

vt 0 339.363
vn -1 0 -0
vt 0 244.254
vt 5.25 244.254
vt 5.25 339.363
f 32/63/5 30/64/5 1/65/5 29/66/5 

vt -2.25353 0
vn 0 1 -0
vt -6.2955 0
vt -6.2955 -5.25
vt -2.25353 -5.25
f 33/67/6 32/68/6 29/69/6 28/70/6 

vt 0 244.105
vn 1 0 -0
vt -5.25 339.363
vt -5.25 244.105
f 34/71/7 33/63/7 28/72/7 27/73/7 

vt 0 211.137
vn 0.991224 0.132194 -0
vt 0 243.718
vn 0.997804 0.0662427 -0
vt -5.25 243.718
vt -5.25 211.137
f 35/74/8 34/75/9 27/76/9 26/77/8 

vt 0 174.787
vn 0.965049 0.262069 -0
vt 0 207.443
vt -5.25 207.443
vt -5.25 174.787
f 36/78/10 35/79/8 26/80/8 25/81/10 

vt 0 135.083
vn 0.921936 0.387343 -0
vt 0 167.739
vt -5.25 167.739
vt -5.25 135.083
f 37/82/11 36/83/10 25/84/10 24/85/11 

vt 0 92.7219
vn 0.86264 0.505818 -0
vt 0 125.378
vt -5.25 125.378
vt -5.25 92.7219
f 38/86/12 37/87/11 24/88/11 23/89/12 

vt 0 48.4463
vn 0.788203 0.615415 -0
vt 0 81.1023
vt -5.25 81.1023
vt -5.25 48.4463
f 39/90/13 38/91/12 23/92/12 22/93/13 

vt 0 3.03368
vn 0.699931 0.71421 -0
vt 0 35.6897
vt -5.25 35.6897
vt -5.25 3.03368
f 40/94/14 39/95/13 22/96/13 21/97/14 

vt 0 -42.7187
vn 0.599374 0.800469 -0
vt 0 -10.0627
vt -5.25 -10.0627
vt -5.25 -42.7187
f 41/98/15 40/99/14 21/100/14 20/101/15 

vt 0 -88.0079
vn 0.488296 0.872678 -0
vt 0 -55.3519
vt -5.25 -55.3519
vt -5.25 -88.0079
f 42/102/16 41/103/15 20/104/15 19/105/16 

vt 0 -132.039
vn 0.368647 0.929569 -0
vt 0 -99.3829
vt -5.25 -99.3829
vt -5.25 -132.039
f 43/106/17 42/107/16 19/108/16 18/109/17 

vt 0 -174.039
vn 0.242528 0.970144 -0
vt 0 -141.383
vt -5.25 -141.383
vt -5.25 -174.039
f 44/110/18 43/111/17 18/112/17 17/113/18 

vt 0 -213.271
vn 0.112152 0.993691 -0
vt 0 -180.615
vt -5.25 -180.615
vt -5.25 -213.271
f 45/114/19 44/115/18 17/116/18 16/117/19 

vt 0 -246.787
vn 0.0460808 0.998938 -0
vt 0 -216.39
vt -5.25 -216.39
vt -5.25 -246.787
f 46/118/20 45/119/19 16/120/19 15/121/20 

vt 0 -11.1722
vn 0.999796 0.0201927 -0
vt 0 -7.14013
vt -5.25 -7.14013
vt -5.25 -11.1722
f 47/122/21 46/123/21 15/124/21 14/125/21 

vt 0 -216.123
vn -0.112152 -0.993691 -0
vt 0 -247.054
vn -0.0460808 -0.998938 -0
vt 5.25 -247.054
vt 5.25 -216.123
f 48/126/22 47/127/23 14/128/23 13/129/22 

vt 0 -180.348
vn -0.242528 -0.970144 -0
vt 0 -213.538
vt 5.25 -213.538
vt 5.25 -180.348
f 49/130/24 48/131/22 13/132/22 12/133/24 

vt 0 -141.116
vn -0.368647 -0.929569 -0
vt 0 -174.306
vt 5.25 -174.306
vt 5.25 -141.116
f 50/134/25 49/135/24 12/136/24 11/137/25 

vt 0 -99.1159
vn -0.488296 -0.872678 -0
vt 0 -132.306
vt 5.25 -132.306
vt 5.25 -99.1159
f 51/138/26 50/139/25 11/140/25 10/141/26 

vt 0 -55.0848
vn -0.599374 -0.800469 -0
vt 0 -88.275
vt 5.25 -88.275
vt 5.25 -55.0848
f 52/142/27 51/143/26 10/144/26 9/145/27 

vt 0 -9.7956
vn -0.699931 -0.71421 -0
vt 0 -42.9858
vt 5.25 -42.9858
vt 5.25 -9.7956
f 53/146/28 52/147/27 9/148/27 8/149/28 

vt 0 35.9568
vn -0.788203 -0.615415 -0
vt 0 2.76659
vt 5.25 2.76659
vt 5.25 35.9568
f 54/150/29 53/151/28 8/152/28 7/153/29 

vt 0 81.3694
vn -0.86264 -0.505818 -0
vt 0 48.1792
vt 5.25 48.1792
vt 5.25 81.3694
f 55/154/30 54/155/29 7/156/29 6/157/30 

vt 0 125.645
vn -0.921936 -0.387343 -0
vt 0 92.4548
vt 5.25 92.4548
vt 5.25 125.645
f 56/158/31 55/159/30 6/160/30 5/161/31 

vt 0 168.007
vn -0.965049 -0.262069 -0
vt 0 134.816
vt 5.25 134.816
vt 5.25 168.007
f 57/162/32 56/163/31 5/164/31 4/165/32 

vt 0 175.817
vn -0.98029 -0.197565 -0
vt 0 174.52
vt 5.25 174.52
vt 5.25 175.817
f 58/166/33 57/167/32 4/168/32 3/169/33 

vt 0 207.711
vt 5.25 207.711
f 31/170/3 58/166/33 3/169/33 2/171/3 

