# WaveFront *.obj file (generated by Autodesk ATF)

mtllib arch.mtl

g Solid1

v 0.000000 0.000000 -1.000000
v 0.000000 0.000000 0.000000
v 0.000000 10.500000 -1.000000
v 0.000000 10.500000 0.000000
v 0.040871 11.227769 -1.000000
v 0.040871 11.227769 0.000000
v 0.162969 11.946386 -1.000000
v 0.162969 11.946386 0.000000
v 0.364758 12.646813 -1.000000
v 0.364758 12.646813 0.000000
v 0.643702 13.320244 -1.000000
v 0.643702 13.320244 0.000000
v 0.996293 13.958209 -1.000000
v 0.996293 13.958209 0.000000
v 1.418095 14.552684 -1.000000
v 1.418095 14.552684 0.000000
v 1.903806 15.096194 -1.000000
v 1.903806 15.096194 0.000000
v 2.447316 15.581904 -1.000000
v 2.447316 15.581904 0.000000
v 3.041792 16.003708 -1.000000
v 3.041792 16.003708 0.000000
v 3.679756 16.356297 -1.000000
v 3.679756 16.356297 0.000000
v 4.353186 16.635241 -1.000000
v 4.353186 16.635241 0.000000
v 5.053614 16.837031 -1.000000
v 5.053614 16.837031 0.000000
v 5.772231 16.959129 -1.000000
v 5.772231 16.959129 0.000000
v 6.500000 17.000000 -1.000000
v 6.500000 17.000000 0.000000
v 7.227769 16.959129 -1.000000
v 7.227769 16.959129 0.000000
v 7.946386 16.837031 -1.000000
v 7.946386 16.837031 0.000000
v 8.646814 16.635241 -1.000000
v 8.646814 16.635241 0.000000
v 9.320244 16.356297 -1.000000
v 9.320244 16.356297 0.000000
v 9.958209 16.003708 -1.000000
v 9.958209 16.003708 0.000000
v 10.552683 15.581904 -1.000000
v 10.552683 15.581904 0.000000
v 11.096194 15.096194 -1.000000
v 11.096194 15.096194 0.000000
v 11.581904 14.552684 -1.000000
v 11.581904 14.552684 0.000000
v 12.003707 13.958209 -1.000000
v 12.003707 13.958209 0.000000
v 12.356298 13.320244 -1.000000
v 12.356298 13.320244 0.000000
v 12.635242 12.646813 -1.000000
v 12.635242 12.646813 0.000000
v 12.837032 11.946386 -1.000000
v 12.837032 11.946386 0.000000
v 12.959129 11.227769 -1.000000
v 12.959129 11.227769 0.000000
v 13.000000 0.000000 -1.000000
v 13.000000 0.000000 0.000000
v 13.000000 10.500000 -1.000000
v 13.000000 10.500000 0.000000
vt 0.000000 0.000000 0.000000
vt 26.670000 0.000000 0.000000
vt 26.670000 2.540000 0.000000
vt 0.000000 2.540000 0.000000
vt -0.000000 -51.867699 0.000000
vt -0.000000 -50.015278 0.000000
vt -0.000000 -48.162861 0.000000
vt -0.000000 -46.310440 0.000000
vt -0.000000 -44.458023 0.000000
vt -0.000000 -42.605610 0.000000
vt -0.000000 -40.753189 0.000000
vt -0.000000 -38.900772 0.000000
vt -0.000000 -37.048355 0.000000
vt -0.000000 -35.195934 0.000000
vt -0.000000 -33.343521 0.000000
vt -0.000000 -31.491100 0.000000
vt -0.000000 -29.638683 0.000000
vt -0.000000 -27.786264 0.000000
vt -0.000000 -25.933849 0.000000
vt -0.000000 -24.081430 0.000000
vt -0.000000 -22.229012 0.000000
vt -0.000000 -20.376595 0.000000
vt -0.000000 -18.524178 0.000000
vt -0.000000 -16.671761 0.000000
vt -0.000000 -14.819342 0.000000
vt -0.000000 -12.966925 0.000000
vt -0.000000 -11.114506 0.000000
vt -0.000000 -9.262089 0.000000
vt -0.000000 -7.409671 0.000000
vt -0.000000 -5.557253 0.000000
vt -0.000000 -3.704835 0.000000
vt -0.000000 -1.852418 0.000000
vt -0.000000 0.000000 0.000000
vt -2.540000 0.000000 0.000000
vt -2.540000 -1.852418 0.000000
vt -2.540000 -3.704835 0.000000
vt -2.540000 -5.557253 0.000000
vt -2.540000 -7.409671 0.000000
vt -2.540000 -9.262089 0.000000
vt -2.540000 -11.114506 0.000000
vt -2.540000 -12.966925 0.000000
vt -2.540000 -14.819342 0.000000
vt -2.540000 -16.671761 0.000000
vt -2.540000 -18.524178 0.000000
vt -2.540000 -20.376595 0.000000
vt -2.540000 -22.229012 0.000000
vt -2.540000 -24.081430 0.000000
vt -2.540000 -25.933849 0.000000
vt -2.540000 -27.786264 0.000000
vt -2.540000 -29.638683 0.000000
vt -2.540000 -31.491100 0.000000
vt -2.540000 -33.343521 0.000000
vt -2.540000 -35.195934 0.000000
vt -2.540000 -37.048355 0.000000
vt -2.540000 -38.900772 0.000000
vt -2.540000 -40.753189 0.000000
vt -2.540000 -42.605610 0.000000
vt -2.540000 -44.458023 0.000000
vt -2.540000 -46.310440 0.000000
vt -2.540000 -48.162861 0.000000
vt -2.540000 -50.015278 0.000000
vt -2.540000 -51.867699 0.000000
vt 0.000000 0.000000 0.000000
vt 26.670000 0.000000 0.000000
vt 26.670000 2.540000 0.000000
vt 0.000000 2.540000 0.000000
vt 0.000000 0.000000 0.000000
vt 33.020000 0.000000 0.000000
vt 33.020000 2.540000 0.000000
vt 0.000000 2.540000 0.000000
vt -16.510000 -17.225233 0.000000
vt 16.510000 -17.225233 0.000000
vt 16.510000 9.444767 0.000000
vt 16.406189 11.293301 0.000000
vt 16.096060 13.118587 0.000000
vt 15.583514 14.897674 0.000000
vt 14.874996 16.608187 0.000000
vt 13.979417 18.228617 0.000000
vt 12.908038 19.738583 0.000000
vt 11.674333 21.119101 0.000000
vt 10.293817 22.352804 0.000000
vt 8.783850 23.424183 0.000000
vt 7.163421 24.319763 0.000000
vt 5.452907 25.028280 0.000000
vt 3.673821 25.540827 0.000000
vt 1.848534 25.850956 0.000000
vt 0.000000 25.954767 0.000000
vt -1.848534 25.850956 0.000000
vt -3.673821 25.540827 0.000000
vt -5.452907 25.028280 0.000000
vt -7.163421 24.319763 0.000000
vt -8.783850 23.424183 0.000000
vt -10.293817 22.352804 0.000000
vt -11.674333 21.119101 0.000000
vt -12.908038 19.738583 0.000000
vt -13.979417 18.228617 0.000000
vt -14.874996 16.608187 0.000000
vt -15.583514 14.897674 0.000000
vt -16.096060 13.118587 0.000000
vt -16.406189 11.293301 0.000000
vt -16.510000 9.444767 0.000000
vt -16.510000 -17.225233 0.000000
vt 16.510000 -17.225233 0.000000
vt 16.510000 9.444767 0.000000
vt 16.406189 11.293301 0.000000
vt 16.096060 13.118587 0.000000
vt 15.583514 14.897674 0.000000
vt 14.874996 16.608187 0.000000
vt 13.979417 18.228617 0.000000
vt 12.908038 19.738583 0.000000
vt 11.674333 21.119101 0.000000
vt 10.293817 22.352804 0.000000
vt 8.783850 23.424183 0.000000
vt 7.163421 24.319763 0.000000
vt 5.452907 25.028280 0.000000
vt 3.673821 25.540827 0.000000
vt 1.848534 25.850956 0.000000
vt -0.000000 25.954767 0.000000
vt -1.848534 25.850956 0.000000
vt -3.673821 25.540827 0.000000
vt -5.452907 25.028280 0.000000
vt -7.163421 24.319763 0.000000
vt -8.783850 23.424183 0.000000
vt -10.293817 22.352804 0.000000
vt -11.674333 21.119101 0.000000
vt -12.908038 19.738583 0.000000
vt -13.979417 18.228617 0.000000
vt -14.874996 16.608187 0.000000
vt -15.583514 14.897674 0.000000
vt -16.096060 13.118587 0.000000
vt -16.406189 11.293301 0.000000
vt -16.510000 9.444767 0.000000
vn 2.540000 0.000000 0.000000
vn 2.540000 0.000000 0.000000
vn 2.540000 0.000000 0.000000
vn 2.540000 0.000000 0.000000
vn -2.540000 0.000000 0.000000
vn -2.524029 0.284390 0.000000
vn -2.476317 0.565203 0.000000
vn -2.397464 0.838909 0.000000
vn -2.288461 1.102065 0.000000
vn -2.150679 1.351361 0.000000
vn -1.985852 1.583664 0.000000
vn -1.796051 1.796051 0.000000
vn -1.583664 1.985852 0.000000
vn -1.351361 2.150679 0.000000
vn -1.102065 2.288461 0.000000
vn -0.838909 2.397464 0.000000
vn -0.565203 2.476317 0.000000
vn -0.284390 2.524029 0.000000
vn 0.000000 2.540000 0.000000
vn 0.284390 2.524029 0.000000
vn 0.565203 2.476317 0.000000
vn 0.838909 2.397464 0.000000
vn 1.102065 2.288461 0.000000
vn 1.351361 2.150679 0.000000
vn 1.583664 1.985852 0.000000
vn 1.796051 1.796051 0.000000
vn 1.985852 1.583664 0.000000
vn 2.150679 1.351361 0.000000
vn 2.288461 1.102065 0.000000
vn 2.397464 0.838909 0.000000
vn 2.476317 0.565203 0.000000
vn 2.524029 0.284390 0.000000
vn 2.540000 0.000000 0.000000
vn 2.540000 0.000000 0.000000
vn 2.524029 0.284390 0.000000
vn 2.476317 0.565203 0.000000
vn 2.397464 0.838909 0.000000
vn 2.288461 1.102065 0.000000
vn 2.150679 1.351361 0.000000
vn 1.985852 1.583664 0.000000
vn 1.796051 1.796051 0.000000
vn 1.583664 1.985852 0.000000
vn 1.351361 2.150679 0.000000
vn 1.102065 2.288461 0.000000
vn 0.838909 2.397464 0.000000
vn 0.565203 2.476317 0.000000
vn 0.284390 2.524029 0.000000
vn 0.000000 2.540000 0.000000
vn -0.284390 2.524029 0.000000
vn -0.565203 2.476317 0.000000
vn -0.838909 2.397464 0.000000
vn -1.102065 2.288461 0.000000
vn -1.351361 2.150679 0.000000
vn -1.583664 1.985852 0.000000
vn -1.796051 1.796051 0.000000
vn -1.985852 1.583664 0.000000
vn -2.150679 1.351361 0.000000
vn -2.288461 1.102065 0.000000
vn -2.397464 0.838909 0.000000
vn -2.476317 0.565203 0.000000
vn -2.524029 0.284390 0.000000
vn -2.540000 0.000000 0.000000
vn -2.540000 0.000000 0.000000
vn -2.540000 0.000000 0.000000
vn -2.540000 0.000000 0.000000
vn -2.540000 0.000000 0.000000
vn 0.000000 -2.540000 0.000000
vn 0.000000 -2.540000 0.000000
vn 0.000000 -2.540000 0.000000
vn 0.000000 -2.540000 0.000000
vn 0.000000 0.000000 2.540000
vn 0.000000 0.000000 2.540000
vn 0.000000 0.000000 2.540000
vn 0.000000 0.000000 2.540000
vn 0.000000 0.000000 2.540000
vn 0.000000 0.000000 2.540000
vn 0.000000 0.000000 2.540000
vn 0.000000 0.000000 2.540000
vn 0.000000 0.000000 2.540000
vn 0.000000 0.000000 2.540000
vn 0.000000 0.000000 2.540000
vn 0.000000 0.000000 2.540000
vn 0.000000 0.000000 2.540000
vn 0.000000 0.000000 2.540000
vn 0.000000 0.000000 2.540000
vn 0.000000 0.000000 2.540000
vn 0.000000 0.000000 2.540000
vn 0.000000 0.000000 2.540000
vn 0.000000 0.000000 2.540000
vn 0.000000 0.000000 2.540000
vn 0.000000 0.000000 2.540000
vn 0.000000 0.000000 2.540000
vn 0.000000 0.000000 2.540000
vn 0.000000 0.000000 2.540000
vn 0.000000 0.000000 2.540000
vn 0.000000 0.000000 2.540000
vn 0.000000 0.000000 2.540000
vn 0.000000 0.000000 2.540000
vn 0.000000 0.000000 2.540000
vn 0.000000 0.000000 2.540000
vn 0.000000 0.000000 2.540000
vn 0.000000 0.000000 -2.540000
vn 0.000000 0.000000 -2.540000
vn 0.000000 0.000000 -2.540000
vn 0.000000 0.000000 -2.540000
vn 0.000000 0.000000 -2.540000
vn 0.000000 0.000000 -2.540000
vn 0.000000 0.000000 -2.540000
vn 0.000000 0.000000 -2.540000
vn 0.000000 0.000000 -2.540000
vn 0.000000 0.000000 -2.540000
vn 0.000000 0.000000 -2.540000
vn 0.000000 0.000000 -2.540000
vn 0.000000 0.000000 -2.540000
vn 0.000000 0.000000 -2.540000
vn 0.000000 0.000000 -2.540000
vn 0.000000 0.000000 -2.540000
vn 0.000000 0.000000 -2.540000
vn 0.000000 0.000000 -2.540000
vn 0.000000 0.000000 -2.540000
vn 0.000000 0.000000 -2.540000
vn 0.000000 0.000000 -2.540000
vn 0.000000 0.000000 -2.540000
vn 0.000000 0.000000 -2.540000
vn 0.000000 0.000000 -2.540000
vn 0.000000 0.000000 -2.540000
vn 0.000000 0.000000 -2.540000
vn 0.000000 0.000000 -2.540000
vn 0.000000 0.000000 -2.540000
vn 0.000000 0.000000 -2.540000
vn 0.000000 0.000000 -2.540000
vn 0.000000 0.000000 -2.540000
usemtl 191,191,191
f 62/1/1 60/2/2 61/4/4
f 61/4/4 60/2/2 59/3/3
f 3/62/62 4/5/5 5/61/61
f 5/61/61 4/5/5 6/6/6
f 5/61/61 6/6/6 8/7/7
f 5/61/61 8/7/7 7/60/60
f 7/60/60 8/7/7 10/8/8
f 7/60/60 10/8/8 9/59/59
f 9/59/59 10/8/8 12/9/9
f 9/59/59 12/9/9 11/58/58
f 11/58/58 12/9/9 14/10/10
f 11/58/58 14/10/10 13/57/57
f 13/57/57 14/10/10 16/11/11
f 13/57/57 16/11/11 15/56/56
f 15/56/56 16/11/11 18/12/12
f 15/56/56 18/12/12 17/55/55
f 17/55/55 18/12/12 20/13/13
f 17/55/55 20/13/13 19/54/54
f 19/54/54 20/13/13 22/14/14
f 19/54/54 22/14/14 21/53/53
f 21/53/53 22/14/14 24/15/15
f 21/53/53 24/15/15 23/52/52
f 23/52/52 24/15/15 26/16/16
f 23/52/52 26/16/16 25/51/51
f 25/51/51 26/16/16 28/17/17
f 25/51/51 28/17/17 27/50/50
f 27/50/50 28/17/17 30/18/18
f 27/50/50 30/18/18 29/49/49
f 29/49/49 30/18/18 32/19/19
f 29/49/49 32/19/19 31/48/48
f 31/48/48 32/19/19 34/20/20
f 31/48/48 34/20/20 33/47/47
f 33/47/47 34/20/20 36/21/21
f 33/47/47 36/21/21 35/46/46
f 35/46/46 36/21/21 38/22/22
f 35/46/46 38/22/22 37/45/45
f 37/45/45 38/22/22 40/23/23
f 37/45/45 40/23/23 39/44/44
f 39/44/44 40/23/23 42/24/24
f 39/44/44 42/24/24 41/43/43
f 41/43/43 42/24/24 44/25/25
f 41/43/43 44/25/25 43/42/42
f 43/42/42 44/25/25 46/26/26
f 43/42/42 46/26/26 45/41/41
f 45/41/41 46/26/26 48/27/27
f 45/41/41 48/27/27 47/40/40
f 47/40/40 48/27/27 50/28/28
f 47/40/40 50/28/28 49/39/39
f 49/39/39 50/28/28 52/29/29
f 49/39/39 52/29/29 51/38/38
f 51/38/38 52/29/29 54/30/30
f 51/38/38 54/30/30 53/37/37
f 53/37/37 54/30/30 56/31/31
f 53/37/37 56/31/31 55/36/36
f 55/36/36 56/31/31 58/32/32
f 55/36/36 58/32/32 57/35/35
f 57/35/35 58/32/32 62/33/33
f 57/35/35 62/33/33 61/34/34
f 2/63/63 4/64/64 1/66/66
f 1/66/66 4/64/64 3/65/65
f 60/67/67 2/68/68 59/70/70
f 59/70/70 2/68/68 1/69/69
f 2/71/71 60/72/72 4/101/101
f 4/101/101 60/72/72 62/73/73
f 4/101/101 62/73/73 6/100/100
f 6/100/100 62/73/73 58/74/74
f 6/100/100 58/74/74 8/99/99
f 8/99/99 58/74/74 56/75/75
f 8/99/99 56/75/75 10/98/98
f 10/98/98 56/75/75 30/88/88
f 10/98/98 30/88/88 28/89/89
f 54/76/76 34/86/86 56/75/75
f 56/75/75 34/86/86 32/87/87
f 56/75/75 32/87/87 30/88/88
f 52/77/77 50/78/78 54/76/76
f 54/76/76 50/78/78 48/79/79
f 54/76/76 48/79/79 46/80/80
f 46/80/80 44/81/81 54/76/76
f 54/76/76 44/81/81 42/82/82
f 54/76/76 42/82/82 40/83/83
f 40/83/83 38/84/84 54/76/76
f 54/76/76 38/84/84 36/85/85
f 54/76/76 36/85/85 34/86/86
f 28/89/89 26/90/90 10/98/98
f 10/98/98 26/90/90 24/91/91
f 10/98/98 24/91/91 22/92/92
f 22/92/92 20/93/93 10/98/98
f 10/98/98 20/93/93 18/94/94
f 10/98/98 18/94/94 16/95/95
f 16/95/95 14/96/96 10/98/98
f 10/98/98 14/96/96 12/97/97
f 59/102/102 1/103/103 61/132/132
f 61/132/132 1/103/103 3/104/104
f 61/132/132 3/104/104 57/131/131
f 57/131/131 3/104/104 5/105/105
f 57/131/131 5/105/105 55/130/130
f 55/130/130 5/105/105 7/106/106
f 55/130/130 7/106/106 53/129/129
f 53/129/129 7/106/106 33/119/119
f 53/129/129 33/119/119 35/120/120
f 9/107/107 29/117/117 7/106/106
f 7/106/106 29/117/117 31/118/118
f 7/106/106 31/118/118 33/119/119
f 11/108/108 13/109/109 9/107/107
f 9/107/107 13/109/109 15/110/110
f 9/107/107 15/110/110 17/111/111
f 17/111/111 19/112/112 9/107/107
f 9/107/107 19/112/112 21/113/113
f 9/107/107 21/113/113 23/114/114
f 23/114/114 25/115/115 9/107/107
f 9/107/107 25/115/115 27/116/116
f 9/107/107 27/116/116 29/117/117
f 35/120/120 37/121/121 53/129/129
f 53/129/129 37/121/121 39/122/122
f 53/129/129 39/122/122 41/123/123
f 41/123/123 43/124/124 53/129/129
f 53/129/129 43/124/124 45/125/125
f 53/129/129 45/125/125 47/126/126
f 47/126/126 49/127/127 53/129/129
f 53/129/129 49/127/127 51/128/128

# 62 vertices
# 132 texture params
# 132 normals
# 120 facets

# 1 groups
