# WaveFront *.obj file (generated by Autodesk ATF)

mtllib GearPost.mtl

g Solid1

v -0.187500 0.000000 0.000000
v -0.187500 0.000000 0.760000
v -0.162380 -0.093750 0.000000
v -0.162380 -0.093750 0.760000
v -0.162380 0.093750 0.000000
v -0.162380 0.093750 0.760000
v -0.093750 -0.162380 0.000000
v -0.093750 -0.162380 0.760000
v -0.093750 0.162380 0.000000
v -0.093750 0.162380 0.760000
v 0.000000 -0.187500 0.000000
v 0.000000 -0.187500 0.760000
v 0.000000 0.187500 0.000000
v 0.000000 0.187500 0.760000
v 0.093750 -0.162380 0.000000
v 0.093750 -0.162380 0.760000
v 0.093750 0.162380 0.000000
v 0.093750 0.162380 0.760000
v 0.162380 -0.093750 0.000000
v 0.162380 -0.093750 0.760000
v 0.162380 0.093750 0.000000
v 0.162380 0.093750 0.760000
v 0.187500 0.000000 0.000000
v 0.187500 0.000000 0.760000
vt -1.930400 1.496184 0.000000
vt -1.930400 1.246819 0.000000
vt -1.930400 0.997456 0.000000
vt -1.930400 0.748092 0.000000
vt -1.930400 0.498728 0.000000
vt -1.930400 0.249364 0.000000
vt -1.930400 0.000000 0.000000
vt -1.930400 -0.249364 0.000000
vt -1.930400 -0.498728 0.000000
vt -1.930400 -0.748092 0.000000
vt -1.930400 -0.997456 0.000000
vt -1.930400 -1.246819 0.000000
vt -0.000000 -1.496184 0.000000
vt -0.000000 -1.246819 0.000000
vt -0.000000 -0.997456 0.000000
vt -0.000000 -0.748092 0.000000
vt -0.000000 -0.498728 0.000000
vt -0.000000 -0.249364 0.000000
vt -0.000000 0.000000 0.000000
vt -0.000000 0.249364 0.000000
vt -0.000000 0.498728 0.000000
vt -0.000000 0.748092 0.000000
vt -0.000000 0.997456 0.000000
vt -0.000000 1.246819 0.000000
vt -0.000000 1.496184 0.000000
vt -1.930400 -1.496184 0.000000
vt -0.476250 0.000000 0.000000
vt -0.412445 -0.238125 0.000000
vt -0.238125 -0.412445 0.000000
vt -0.000000 -0.476250 0.000000
vt 0.238125 -0.412445 0.000000
vt 0.412445 -0.238125 0.000000
vt 0.476250 0.000000 0.000000
vt 0.412445 0.238125 0.000000
vt 0.238125 0.412445 0.000000
vt -0.000000 0.476250 0.000000
vt -0.238125 0.412445 0.000000
vt -0.412445 0.238125 0.000000
vt 0.476250 0.000000 0.000000
vt 0.412445 0.238125 0.000000
vt 0.238125 0.412445 0.000000
vt 0.000000 0.476250 0.000000
vt -0.238125 0.412445 0.000000
vt -0.412445 0.238125 0.000000
vt -0.476250 0.000000 0.000000
vt -0.412445 -0.238125 0.000000
vt -0.238125 -0.412445 0.000000
vt 0.000000 -0.476250 0.000000
vt 0.238125 -0.412445 0.000000
vt 0.412445 -0.238125 0.000000
vn 2.540000 0.000000 0.000000
vn 2.199704 -1.270000 0.000000
vn 1.270000 -2.199704 0.000000
vn 0.000000 -2.540000 0.000000
vn -1.270000 -2.199704 0.000000
vn -2.199704 -1.270000 0.000000
vn -2.540000 0.000000 0.000000
vn -2.199704 1.270000 0.000000
vn -1.270000 2.199704 0.000000
vn 0.000000 2.540000 0.000000
vn 1.270000 2.199704 0.000000
vn 2.199704 1.270000 0.000000
vn 2.540000 0.000000 0.000000
vn 2.199704 1.270000 0.000000
vn 1.270000 2.199704 0.000000
vn 0.000000 2.540000 0.000000
vn -1.270000 2.199704 0.000000
vn -2.199704 1.270000 0.000000
vn -2.540000 0.000000 0.000000
vn -2.199704 -1.270000 0.000000
vn -1.270000 -2.199704 0.000000
vn 0.000000 -2.540000 0.000000
vn 1.270000 -2.199704 0.000000
vn 2.199704 -1.270000 0.000000
vn 2.540000 0.000000 0.000000
vn 2.540000 0.000000 0.000000
vn 0.000000 0.000000 -2.540000
vn 0.000000 0.000000 -2.540000
vn 0.000000 0.000000 -2.540000
vn 0.000000 0.000000 -2.540000
vn 0.000000 0.000000 -2.540000
vn 0.000000 0.000000 -2.540000
vn 0.000000 0.000000 -2.540000
vn 0.000000 0.000000 -2.540000
vn 0.000000 0.000000 -2.540000
vn 0.000000 0.000000 -2.540000
vn 0.000000 0.000000 -2.540000
vn 0.000000 0.000000 -2.540000
vn 0.000000 0.000000 2.540000
vn 0.000000 0.000000 2.540000
vn 0.000000 0.000000 2.540000
vn 0.000000 0.000000 2.540000
vn 0.000000 0.000000 2.540000
vn 0.000000 0.000000 2.540000
vn 0.000000 0.000000 2.540000
vn 0.000000 0.000000 2.540000
vn 0.000000 0.000000 2.540000
vn 0.000000 0.000000 2.540000
vn 0.000000 0.000000 2.540000
vn 0.000000 0.000000 2.540000
usemtl 191,191,191
f 20/2/2 19/24/24 24/1/1
f 24/1/1 19/24/24 23/25/25
f 24/26/26 23/13/13 22/12/12
f 22/12/12 23/13/13 21/14/14
f 22/12/12 21/14/14 18/11/11
f 18/11/11 21/14/14 17/15/15
f 18/11/11 17/15/15 14/10/10
f 14/10/10 17/15/15 13/16/16
f 14/10/10 13/16/16 10/9/9
f 10/9/9 13/16/16 9/17/17
f 10/9/9 9/17/17 6/8/8
f 6/8/8 9/17/17 5/18/18
f 6/8/8 5/18/18 2/7/7
f 2/7/7 5/18/18 1/19/19
f 2/7/7 1/19/19 4/6/6
f 4/6/6 1/19/19 3/20/20
f 4/6/6 3/20/20 8/5/5
f 8/5/5 3/20/20 7/21/21
f 8/5/5 7/21/21 12/4/4
f 12/4/4 7/21/21 11/22/22
f 12/4/4 11/22/22 16/3/3
f 16/3/3 11/22/22 15/23/23
f 16/3/3 15/23/23 20/2/2
f 20/2/2 15/23/23 19/24/24
f 19/28/28 3/32/32 23/27/27
f 23/27/27 3/32/32 1/33/33
f 23/27/27 1/33/33 21/38/38
f 21/38/38 1/33/33 5/34/34
f 21/38/38 5/34/34 17/37/37
f 17/37/37 5/34/34 9/35/35
f 17/37/37 9/35/35 13/36/36
f 3/32/32 19/28/28 7/31/31
f 7/31/31 19/28/28 15/29/29
f 7/31/31 15/29/29 11/30/30
f 22/40/40 6/44/44 24/39/39
f 24/39/39 6/44/44 2/45/45
f 24/39/39 2/45/45 20/50/50
f 20/50/50 2/45/45 4/46/46
f 20/50/50 4/46/46 16/49/49
f 16/49/49 4/46/46 8/47/47
f 16/49/49 8/47/47 12/48/48
f 6/44/44 22/40/40 10/43/43
f 10/43/43 22/40/40 18/41/41
f 10/43/43 18/41/41 14/42/42

# 24 vertices
# 50 texture params
# 50 normals
# 44 facets

# 1 groups
