# Alias OBJ Model File
# Exported from SketchUp, (c) 2000-2012 Trimble Navigation Limited
# File units = inches

mtllib Hallway.mtl

g Mesh1 Model

usemtl FrontColor
v 26.125 0 -4.10138
vt -26.125 4.10138
vn 7.65099e-21 -1 2.02072e-20
v 26.125 0 1.14862
vt -26.125 -1.14862
v 0 -7.101e-21 1.14862
vt 5.43297e-41 -1.14862
v 0 0 -0
vt 0 0
v 0 0 -4.10138
vt 0 4.10138
v 5.08967 0 -4.10138
vt -5.08967 4.10138
v 5.08967 0 -0
vt -5.08967 7.86887e-40
v 11.1543 0 -0
vt -11.1543 1.72451e-39
v 11.1543 0 -4.10138
vt -11.1543 4.10138
v 17.7154 0 -4.10138
vt -17.7154 4.10138
v 17.7154 0 -0
vt -17.7154 2.73889e-39
v 23.246 0 -0
vt -23.246 3.59394e-39
v 23.246 0 -4.10138
vt -23.246 4.10138
f 1/1/1 2/2/1 3/3/1 4/4/1 5/5/1 6/6/1 7/7/1 8/8/1 9/9/1 10/10/1 11/11/1 12/12/1 13/13/1 

v 26.125 15.375 -4.10138
vt 4.10138 15.375
vn 1 0 7.26925e-16
v 26.125 15.375 1.14862
vt -1.14862 15.375
vt -1.14862 0
vt 4.10138 0
f 14/14/2 15/15/2 2/16/2 1/17/2 

v -9.33907e-20 15.375 1.14862
vt -9.33907e-20 -1.14862
vn 0 1 -0
vt 26.125 -1.14862
vt 26.125 4.10138
v 23.246 15.375 -4.10138
vt 23.246 4.10138
v 23.246 15.375 -1.16456e-19
vt 23.246 1.16456e-19
v 17.7154 15.375 -1.16456e-19
vt 17.7154 1.16456e-19
v 17.7154 15.375 -4.10138
vt 17.7154 4.10138
v 11.1543 15.375 -4.10138
vt 11.1543 4.10138
v 11.1543 15.375 -1.16456e-19
vt 11.1543 1.16456e-19
v 5.08967 15.375 -1.16456e-19
vt 5.08967 1.16456e-19
v 5.08967 15.375 -4.10138
vt 5.08967 4.10138
v -9.33907e-20 15.375 -4.10138
vt -9.33907e-20 4.10138
v -9.33907e-20 15.375 -1.16456e-19
vt -9.33907e-20 1.16456e-19
f 16/18/3 15/19/3 14/20/3 17/21/3 18/22/3 19/23/3 20/24/3 21/25/3 22/26/3 23/27/3 24/28/3 25/29/3 26/30/3 

vt 0 -7.101e-21
vn 0 0 1
vt 26.125 0
vt 26.125 15.375
vt -9.33907e-20 15.375
f 3/31/4 2/32/4 15/33/4 16/34/4 

vn -1 -6.07419e-21 -0
vt 1.14862 -7.101e-21
vt 1.14862 15.375
vt -1.16456e-19 15.375
f 4/4/5 3/35/5 16/36/5 26/37/5 

vt -4.10138 0
vt -4.10138 15.375
f 5/38/5 4/4/5 26/37/5 25/39/5 

vt -5.08967 3.10655e-20
vn 0 -7.5744e-21 -1
vt 0 3.10655e-20
vt 9.33907e-20 15.375
vt -5.08967 15.375
f 6/40/6 5/41/6 25/42/6 24/43/6 

vt 0 -3.09156e-20
vn 1 6.07419e-21 -0
vt 4.10138 -3.09156e-20
vt 1.16456e-19 15.375
f 7/44/7 6/45/7 24/14/7 23/46/7 

vt -11.1543 0
vt -5.08967 0
vt -11.1543 15.375
f 8/47/6 7/48/6 23/43/6 22/49/6 

vt -4.10138 -6.77535e-20
vt 0 -6.77535e-20
f 9/50/5 8/51/5 22/37/5 21/39/5 

vt -17.7154 3.10655e-20
vt -11.1543 3.10655e-20
vt -17.7154 15.375
f 10/52/6 9/53/6 21/49/6 20/54/6 

vt 0 -1.07607e-19
vt 4.10138 -1.07607e-19
f 11/55/7 10/56/7 20/14/7 19/46/7 

vt -23.246 0
vt -17.7154 0
vt -23.246 15.375
f 12/57/6 11/58/6 19/54/6 18/59/6 

vt -4.10138 -1.41201e-19
vt 0 -1.41201e-19
f 13/60/5 12/61/5 18/37/5 17/39/5 

vt -26.125 3.10655e-20
vt -23.246 3.10655e-20
vt -26.125 15.375
f 1/62/6 13/63/6 17/59/6 14/64/6 

g Mesh2 Model

v 26.125 15.375 -14.7264
vt 26.125 14.7264
v 26.125 15.375 -19.9139
vt 26.125 19.9139
v -9.33907e-20 15.375 -19.9139
vt -9.33907e-20 19.9139
v -9.33907e-20 15.375 -14.7264
vt -9.33907e-20 14.7264
v 5.08967 15.375 -14.7264
vt 5.08967 14.7264
v 5.08967 15.375 -18.8278
vt 5.08967 18.8278
v 11.1543 15.375 -18.8278
vt 11.1543 18.8278
v 11.1543 15.375 -14.7264
vt 11.1543 14.7264
v 17.7154 15.375 -14.7264
vt 17.7154 14.7264
v 17.7154 15.375 -18.8278
vt 17.7154 18.8278
v 23.246 15.375 -18.8278
vt 23.246 18.8278
v 23.246 15.375 -14.7264
vt 23.246 14.7264
f 27/65/3 28/66/3 29/67/3 30/68/3 31/69/3 32/70/3 33/71/3 34/72/3 35/73/3 36/74/3 37/75/3 38/76/3 

v 26.125 0 -19.9139
vt 19.9139 0
vn 1 0 -0
vt 19.9139 15.375
vt 14.7264 15.375
v 26.125 0 -14.7264
vt 14.7264 0
f 39/77/8 28/78/8 27/79/8 40/80/8 

vn 0 0 -1
vt -26.125 0
v 0 0 -19.9139
f 28/64/9 39/81/9 41/4/9 29/42/9 

vt 0 19.9139
vn 0 -1 -0
vt -26.125 19.9139
vt -26.125 14.7264
v 23.246 0 -14.7264
vt -23.246 14.7264
v 23.246 0 -18.8278
vt -23.246 18.8278
v 17.7154 0 -18.8278
vt -17.7154 18.8278
v 17.7154 0 -14.7264
vt -17.7154 14.7264
v 11.1543 0 -14.7264
vt -11.1543 14.7264
v 11.1543 0 -18.8278
vt -11.1543 18.8278
v 5.08967 0 -18.8278
vt -5.08967 18.8278
v 5.08967 0 -14.7264
vt -5.08967 14.7264
v 0 0 -14.7264
vt 0 14.7264
v 0 0 -18.8278
vt 0 18.8278
f 41/82/10 39/83/10 40/84/10 42/85/10 43/86/10 44/87/10 45/88/10 46/89/10 47/90/10 48/91/10 49/92/10 50/93/10 51/94/10 

vt 23.246 1.11543e-19
vn 0 7.5744e-21 1
vt 26.125 1.11543e-19
vt 23.246 15.375
f 42/95/11 40/96/11 27/33/11 38/97/11 

vt -18.8278 -1.41201e-19
vt -14.7264 -1.41201e-19
vt -14.7264 15.375
vt -18.8278 15.375
f 43/98/5 42/99/5 38/100/5 37/101/5 

vt 17.7154 1.42609e-19
vt 23.246 1.42609e-19
vt 17.7154 15.375
f 44/102/11 43/103/11 37/97/11 36/104/11 

vt 14.7264 -1.07607e-19
vt 18.8278 -1.07607e-19
vt 18.8278 15.375
f 45/105/7 44/106/7 36/107/7 35/79/7 

vt 11.1543 1.11543e-19
vt 17.7154 1.11543e-19
vt 11.1543 15.375
f 46/108/11 45/109/11 35/104/11 34/110/11 

vt -18.8278 -6.77535e-20
vt -14.7264 -6.77535e-20
f 47/111/5 46/112/5 34/100/5 33/101/5 

vt 5.08967 1.42609e-19
vt 11.1543 1.42609e-19
vt 5.08967 15.375
f 48/113/11 47/114/11 33/110/11 32/115/11 

vt 14.7264 -3.09156e-20
vt 18.8278 -3.09156e-20
f 49/116/7 48/117/7 32/107/7 31/79/7 

vt 0 1.11543e-19
vt 5.08967 1.11543e-19
f 50/118/11 49/119/11 31/115/11 30/34/11 

vt -19.9139 15.375
vt -19.9139 0
vt -18.8278 0
vt -14.7264 0
f 30/100/5 29/120/5 41/121/5 51/122/5 50/123/5 

g Mesh3 Model

v 33.4575 15.375 -14.7264
vn -1 0 -0
v 33.4575 15.375 -19.9139
v 33.4575 0 -19.9139
v 33.4575 7.10543e-15 -14.7264
vt -14.7264 7.10543e-15
f 52/100/12 53/120/12 54/121/12 55/124/12 

vt 33.4575 19.9139
vt 33.4575 14.7264
v 34.8125 15.375 -14.7264
vt 34.8125 14.7264
v 34.8125 15.375 -19.9139
vt 34.8125 19.9139
f 53/125/3 52/126/3 56/127/3 57/128/3 

vt 34.8125 15.375
vt 33.4575 15.375
vt 33.4575 7.10543e-15
v 34.8125 7.10543e-15 -14.7264
vt 34.8125 7.10543e-15
f 56/129/4 52/130/4 55/131/4 58/132/4 

vt -33.4575 14.7264
vn 3.46459e-16 -1 1.42232e-15
vt -33.4575 19.9139
v 34.8125 0 -19.9139
vt -34.8125 19.9139
vt -34.8125 14.7264
f 55/133/13 54/134/13 59/135/13 58/136/13 

vt -34.8125 0
vt -33.4575 0
vt -33.4575 15.375
vt -34.8125 15.375
f 59/137/9 54/138/9 53/139/9 57/140/9 

vt 14.7264 7.10543e-15
f 56/79/8 58/141/8 59/77/8 57/78/8 

g Mesh4 Model

v 34.8125 -7.101e-21 1.14862
vt -1.14862 -7.101e-21
v 34.8125 7.10543e-15 -4.10138
vt 4.10138 7.10543e-15
v 34.8125 15.375 -4.10138
v 34.8125 15.375 1.14862
f 60/142/8 61/143/8 62/14/8 63/15/8 

vt -34.8125 -1.14862
vn 3.63074e-16 -1 -1.40612e-15
v 33.4575 0 1.14862
vt -33.4575 -1.14862
v 33.4575 7.10543e-15 -4.10138
vt -33.4575 4.10138
vt -34.8125 4.10138
f 60/144/14 64/145/14 65/146/14 61/147/14 

v 33.4575 15.375 1.14862
vt 33.4575 0
vt 34.8125 -7.101e-21
f 66/130/4 64/148/4 60/149/4 63/129/4 

v 33.4575 15.375 -4.10138
vt -4.10138 7.10543e-15
vt 1.14862 0
f 66/36/12 67/39/12 65/150/12 64/151/12 

vt 34.8125 -1.14862
vt 34.8125 4.10138
vt 33.4575 4.10138
vt 33.4575 -1.14862
f 63/152/3 62/153/3 67/154/3 66/155/3 

vt -34.8125 7.10543e-15
vt -33.4575 7.10543e-15
f 67/139/9 62/140/9 61/156/9 65/157/9 

